<?xml version="1.0" encoding="UTF-8" standalone="no"?>
<!DOCTYPE svg PUBLIC "-//W3C//DTD SVG 1.1//EN"
 "http://www.w3.org/Graphics/SVG/1.1/DTD/svg11.dtd">
<!-- Generated by graphviz version 12.2.1 (0)
 -->
<!-- Title: G Pages: 1 -->
<svg width="935pt" height="506pt"
 viewBox="0.00 0.00 935.00 506.18" xmlns="http://www.w3.org/2000/svg" xmlns:xlink="http://www.w3.org/1999/xlink">
<g id="graph0" class="graph" transform="scale(1 1) rotate(0) translate(4 502.18)">
<title>G</title><style>.edge>path:hover{stroke-width:8}</style>
<polygon fill="white" stroke="none" points="-4,4 -4,-502.18 931,-502.18 931,4 -4,4"/>
<!-- bs4 -->
<g id="node1" class="node">
<title>bs4</title><style>.edge>path:hover{stroke-width:8}</style>
<ellipse fill="#c04040" stroke="black" cx="450" cy="-324.66" rx="27" ry="18"/>
<text text-anchor="middle" x="450" y="-320.78" font-family="Helvetica,sans-Serif" font-size="10.00" fill="#ffffff">bs4</text>
</g>
<!-- src_scrape -->
<g id="node19" class="node">
<title>src_scrape</title><style>.edge>path:hover{stroke-width:8}</style>
<ellipse fill="#3d3db8" stroke="black" cx="440" cy="-169.13" rx="36.54" ry="18"/>
<text text-anchor="middle" x="440" y="-165.26" font-family="Helvetica,sans-Serif" font-size="10.00" fill="#ffffff">src.scrape</text>
</g>
<!-- bs4&#45;&gt;src_scrape -->
<g id="edge1" class="edge">
<title>bs4&#45;&gt;src_scrape</title><style>.edge>path:hover{stroke-width:8}</style>
<path fill="none" stroke="black" d="M448.87,-306.34C447.17,-280.2 443.92,-230.34 441.86,-198.75"/>
<polygon fill="#c04040" stroke="black" points="445.38,-198.88 441.24,-189.13 438.39,-199.33 445.38,-198.88"/>
</g>
<!-- flask -->
<g id="node2" class="node">
<title>flask</title><style>.edge>path:hover{stroke-width:8}</style>
<ellipse fill="#bfc040" stroke="black" cx="27" cy="-169.13" rx="27" ry="18"/>
<text text-anchor="middle" x="27" y="-165.26" font-family="Helvetica,sans-Serif" font-size="10.00" fill="#000000">flask</text>
</g>
<!-- src_flask_app -->
<g id="node13" class="node">
<title>src_flask_app</title><style>.edge>path:hover{stroke-width:8}</style>
<ellipse fill="#2e2e6b" stroke="black" cx="407" cy="-18" rx="44.08" ry="18"/>
<text text-anchor="middle" x="407" y="-14.12" font-family="Helvetica,sans-Serif" font-size="10.00" fill="#ffffff">src.flask_app</text>
</g>
<!-- flask&#45;&gt;src_flask_app -->
<g id="edge2" class="edge">
<title>flask&#45;&gt;src_flask_app</title><style>.edge>path:hover{stroke-width:8}</style>
<path fill="none" stroke="black" d="M82,-92.57C91.31,-84.31 90.07,-77.95 101,-72 143.57,-48.84 277.25,-32.07 353.09,-24.14"/>
<polygon fill="#bfc040" stroke="black" points="353.19,-27.65 362.78,-23.14 352.48,-20.68 353.19,-27.65"/>
<path fill="none" stroke="black" d="M36.35,-152C46.19,-136 62.9,-111.49 82,-94.57"/>
</g>
<!-- psycopg -->
<g id="node3" class="node">
<title>psycopg</title><style>.edge>path:hover{stroke-width:8}</style>
<ellipse fill="#0cf30c" stroke="black" cx="231" cy="-324.66" rx="31.21" ry="18"/>
<text text-anchor="middle" x="231" y="-320.78" font-family="Helvetica,sans-Serif" font-size="10.00" fill="#000000">psycopg</text>
</g>
<!-- psycopg&#45;&gt;src_flask_app -->
<g id="edge3" class="edge">
<title>psycopg&#45;&gt;src_flask_app</title><style>.edge>path:hover{stroke-width:8}</style>
<path fill="none" stroke="black" d="M82,-168.13C96.49,-138.82 57.53,-116.25 82,-94.57"/>
<path fill="none" stroke="black" d="M200.01,-321.6C161.18,-317.18 96.09,-303.21 66,-259.13 43.34,-225.94 64.19,-206.16 82,-170.13"/>
</g>
<!-- src_load_data -->
<g id="node14" class="node">
<title>src_load_data</title><style>.edge>path:hover{stroke-width:8}</style>
<ellipse fill="#2121bf" stroke="black" cx="265" cy="-169.13" rx="44.08" ry="18"/>
<text text-anchor="middle" x="265" y="-165.26" font-family="Helvetica,sans-Serif" font-size="10.00" fill="#ffffff">src.load_data</text>
</g>
<!-- psycopg&#45;&gt;src_load_data -->
<g id="edge4" class="edge">
<title>psycopg&#45;&gt;src_load_data</title><style>.edge>path:hover{stroke-width:8}</style>
<path fill="none" stroke="black" d="M232.15,-306.41C232.98,-289.87 233.56,-264.21 231,-242.13"/>
<path fill="none" stroke="black" d="M231,-240.13C229.18,-224.46 236.1,-208.52 244.16,-195.82"/>
<polygon fill="#0cf30c" stroke="black" points="247.01,-197.84 249.86,-187.63 241.27,-193.84 247.01,-197.84"/>
</g>
<!-- src_pull_data -->
<g id="node17" class="node">
<title>src_pull_data</title><style>.edge>path:hover{stroke-width:8}</style>
<ellipse fill="#2e2e8a" stroke="black" cx="407" cy="-93.57" rx="42.31" ry="18"/>
<text text-anchor="middle" x="407" y="-89.69" font-family="Helvetica,sans-Serif" font-size="10.00" fill="#ffffff">src.pull_data</text>
</g>
<!-- psycopg&#45;&gt;src_pull_data -->
<g id="edge5" class="edge">
<title>psycopg&#45;&gt;src_pull_data</title><style>.edge>path:hover{stroke-width:8}</style>
<path fill="none" stroke="black" d="M256.47,-313.78C295.18,-298.09 365.34,-266.74 375,-242.13"/>
<path fill="none" stroke="black" d="M375,-240.13C389.78,-202.48 385.25,-190.62 394,-151.13 396.03,-141.97 398.31,-131.98 400.38,-122.98"/>
<polygon fill="#0cf30c" stroke="black" points="403.76,-123.89 402.61,-113.36 396.94,-122.31 403.76,-123.89"/>
</g>
<!-- src_query_data -->
<g id="node18" class="node">
<title>src_query_data</title><style>.edge>path:hover{stroke-width:8}</style>
<ellipse fill="#333399" stroke="black" cx="158" cy="-93.57" rx="47.63" ry="18"/>
<text text-anchor="middle" x="158" y="-89.69" font-family="Helvetica,sans-Serif" font-size="10.00" fill="#ffffff">src.query_data</text>
</g>
<!-- psycopg&#45;&gt;src_query_data -->
<g id="edge6" class="edge">
<title>psycopg&#45;&gt;src_query_data</title><style>.edge>path:hover{stroke-width:8}</style>
<path fill="none" stroke="black" d="M82,-168.13C92.16,-147.58 110.5,-129.57 126.61,-116.52"/>
<polygon fill="#0cf30c" stroke="black" points="128.32,-119.62 134.07,-110.72 124.03,-114.09 128.32,-119.62"/>
</g>
<!-- psycopg_rows -->
<g id="node4" class="node">
<title>psycopg_rows</title><style>.edge>path:hover{stroke-width:8}</style>
<ellipse fill="#4cb34c" stroke="black" cx="120" cy="-241.13" rx="45.41" ry="18"/>
<text text-anchor="middle" x="120" y="-237.26" font-family="Helvetica,sans-Serif" font-size="10.00" fill="#000000">psycopg.rows</text>
</g>
<!-- psycopg_rows&#45;&gt;src_query_data -->
<g id="edge7" class="edge">
<title>psycopg_rows&#45;&gt;src_query_data</title><style>.edge>path:hover{stroke-width:8}</style>
<path fill="none" stroke="black" d="M193,-168.13C188.03,-152.15 180.17,-135.22 173.16,-121.64"/>
<polygon fill="#4cb34c" stroke="black" points="176.29,-120.06 168.5,-112.88 170.11,-123.35 176.29,-120.06"/>
<path fill="none" stroke="black" d="M150.28,-227.48C173.71,-215.52 200.93,-195.62 193,-170.13"/>
</g>
<!-- psycopg_sql -->
<g id="node5" class="node">
<title>psycopg_sql</title><style>.edge>path:hover{stroke-width:8}</style>
<ellipse fill="#3bce3b" stroke="black" cx="364" cy="-324.66" rx="40.53" ry="18"/>
<text text-anchor="middle" x="364" y="-320.78" font-family="Helvetica,sans-Serif" font-size="10.00" fill="#000000">psycopg.sql</text>
</g>
<!-- psycopg_sql&#45;&gt;src_load_data -->
<g id="edge8" class="edge">
<title>psycopg_sql&#45;&gt;src_load_data</title><style>.edge>path:hover{stroke-width:8}</style>
<path fill="none" stroke="black" d="M327.14,-316.82C289.59,-307.43 236.14,-286.39 231,-242.13"/>
</g>
<!-- psycopg_sql&#45;&gt;src_pull_data -->
<g id="edge9" class="edge">
<title>psycopg_sql&#45;&gt;src_pull_data</title><style>.edge>path:hover{stroke-width:8}</style>
<path fill="none" stroke="black" d="M363.98,-306.2C364.5,-289.27 366.76,-263.14 375,-242.13"/>
</g>
<!-- psycopg_sql&#45;&gt;src_query_data -->
<g id="edge10" class="edge">
<title>psycopg_sql&#45;&gt;src_query_data</title><style>.edge>path:hover{stroke-width:8}</style>
<path fill="none" stroke="black" d="M331.95,-313.24C293.61,-300.19 232.63,-277.31 217,-259.13 190.29,-228.07 205.17,-209.25 193,-170.13"/>
</g>
<!-- sqlalchemy -->
<g id="node6" class="node">
<title>sqlalchemy</title><style>.edge>path:hover{stroke-width:8}</style>
<polygon fill="blue" stroke="black" points="748.75,-342.66 683.25,-342.66 683.25,-306.66 748.75,-306.66 748.75,-342.66"/>
<text text-anchor="middle" x="716" y="-320.78" font-family="Helvetica,sans-Serif" font-size="10.00" fill="white">sqlalchemy</text>
</g>
<!-- sqlalchemy&#45;&gt;src_flask_app -->
<g id="edge11" class="edge">
<title>sqlalchemy&#45;&gt;src_flask_app</title><style>.edge>path:hover{stroke-width:8}</style>
<path fill="none" stroke="black" d="M759,-168.13C750.85,-134.18 725.76,-139.76 701,-115.13 692.18,-106.36 690.21,-103.92 682,-94.57"/>
<path fill="none" stroke="black" d="M759,-240.13C759.71,-209.03 766.26,-200.39 759,-170.13"/>
</g>
<!-- src_models -->
<g id="node15" class="node">
<title>src_models</title><style>.edge>path:hover{stroke-width:8}</style>
<ellipse fill="#2d2db4" stroke="black" cx="693" cy="-169.13" rx="37.87" ry="18"/>
<text text-anchor="middle" x="693" y="-165.26" font-family="Helvetica,sans-Serif" font-size="10.00" fill="#ffffff">src.models</text>
</g>
<!-- sqlalchemy&#45;&gt;src_models -->
<g id="edge12" class="edge">
<title>sqlalchemy&#45;&gt;src_models</title><style>.edge>path:hover{stroke-width:8}</style>
<path fill="none" stroke="black" d="M759,-240.13C759.49,-218.86 743.14,-201.42 726.6,-189.27"/>
<polygon fill="blue" stroke="black" points="728.98,-186.66 718.74,-183.93 725.04,-192.45 728.98,-186.66"/>
<path fill="none" stroke="black" d="M731.25,-306.26C743.39,-290.63 758.44,-266.45 759,-242.13"/>
</g>
<!-- src_orm_queries -->
<g id="node16" class="node">
<title>src_orm_queries</title><style>.edge>path:hover{stroke-width:8}</style>
<ellipse fill="#3535a1" stroke="black" cx="759" cy="-93.57" rx="48.97" ry="21.57"/>
<text text-anchor="middle" x="759" y="-95.32" font-family="Helvetica,sans-Serif" font-size="10.00" fill="#ffffff">src.</text>
<text text-anchor="middle" x="759" y="-84.07" font-family="Helvetica,sans-Serif" font-size="10.00" fill="#ffffff">orm_queries</text>
</g>
<!-- sqlalchemy&#45;&gt;src_orm_queries -->
<g id="edge13" class="edge">
<title>sqlalchemy&#45;&gt;src_orm_queries</title><style>.edge>path:hover{stroke-width:8}</style>
<path fill="none" stroke="black" d="M759,-168.13C755.8,-154.82 755.28,-139.76 755.76,-126.75"/>
<polygon fill="blue" stroke="black" points="759.24,-127.18 756.34,-116.99 752.25,-126.77 759.24,-127.18"/>
</g>
<!-- sqlalchemy_exc -->
<g id="node7" class="node">
<title>sqlalchemy_exc</title><style>.edge>path:hover{stroke-width:8}</style>
<polygon fill="blue" stroke="black" points="881.38,-426.18 798.62,-426.18 798.62,-390.18 881.38,-390.18 881.38,-426.18"/>
<text text-anchor="middle" x="840" y="-404.3" font-family="Helvetica,sans-Serif" font-size="10.00" fill="white">sqlalchemy.exc</text>
</g>
<!-- sqlalchemy_exc&#45;&gt;sqlalchemy -->
<g id="edge14" class="edge">
<title>sqlalchemy_exc&#45;&gt;sqlalchemy</title><style>.edge>path:hover{stroke-width:8}</style>
<path fill="none" stroke="black" d="M812.94,-389.9C796.91,-379.62 776.23,-366.25 758,-354.18 755.62,-352.6 753.17,-350.97 750.71,-349.32"/>
<polygon fill="blue" stroke="black" points="752.76,-346.48 742.51,-343.79 748.85,-352.28 752.76,-346.48"/>
</g>
<!-- sqlalchemy_exc&#45;&gt;src_flask_app -->
<g id="edge15" class="edge">
<title>sqlalchemy_exc&#45;&gt;src_flask_app</title><style>.edge>path:hover{stroke-width:8}</style>
<path fill="none" stroke="black" d="M851.9,-389.77C858.2,-379.77 865.54,-366.73 870,-354.18 886.92,-306.59 889,-292.64 889,-242.13 889,-242.13 889,-242.13 889,-168.13 889,-114.75 863.1,-98.91 817,-72 758.03,-37.59 560.24,-25.05 462.55,-20.88"/>
<polygon fill="blue" stroke="black" points="462.8,-17.39 452.66,-20.48 462.51,-24.38 462.8,-17.39"/>
</g>
<!-- sqlalchemy_orm -->
<g id="node8" class="node">
<title>sqlalchemy_orm</title><style>.edge>path:hover{stroke-width:8}</style>
<ellipse fill="#3db8b8" stroke="black" cx="616" cy="-324.66" rx="49.41" ry="18"/>
<text text-anchor="middle" x="616" y="-320.78" font-family="Helvetica,sans-Serif" font-size="10.00" fill="#000000">sqlalchemy.orm</text>
</g>
<!-- sqlalchemy_orm&#45;&gt;src_models -->
<g id="edge16" class="edge">
<title>sqlalchemy_orm&#45;&gt;src_models</title><style>.edge>path:hover{stroke-width:8}</style>
<path fill="none" stroke="black" d="M624.53,-306.64C637.84,-280.1 663.66,-228.63 679.51,-197.03"/>
<polygon fill="#3db8b8" stroke="black" points="682.63,-198.62 683.98,-188.11 676.37,-195.48 682.63,-198.62"/>
</g>
<!-- sqlalchemy_sql -->
<g id="node9" class="node">
<title>sqlalchemy_sql</title><style>.edge>path:hover{stroke-width:8}</style>
<polygon fill="blue" stroke="black" points="879.88,-498.18 800.12,-498.18 800.12,-462.18 879.88,-462.18 879.88,-498.18"/>
<text text-anchor="middle" x="840" y="-476.3" font-family="Helvetica,sans-Serif" font-size="10.00" fill="white">sqlalchemy.sql</text>
</g>
<!-- sqlalchemy_sql&#45;&gt;sqlalchemy -->
<g id="edge17" class="edge">
<title>sqlalchemy_sql&#45;&gt;sqlalchemy</title><style>.edge>path:hover{stroke-width:8}</style>
<path fill="none" stroke="black" d="M822.78,-462C812.87,-451.86 800.37,-438.61 790,-426.18 769.83,-402.01 748.73,-372.91 734.25,-352.26"/>
<polygon fill="blue" stroke="black" points="737.15,-350.3 728.57,-344.09 731.41,-354.3 737.15,-350.3"/>
</g>
<!-- sqlalchemy_sql&#45;&gt;sqlalchemy_exc -->
<g id="edge18" class="edge">
<title>sqlalchemy_sql&#45;&gt;sqlalchemy_exc</title><style>.edge>path:hover{stroke-width:8}</style>
<path fill="none" stroke="black" d="M840,-461.87C840,-454.58 840,-445.9 840,-437.71"/>
<polygon fill="blue" stroke="black" points="843.5,-437.79 840,-427.79 836.5,-437.79 843.5,-437.79"/>
</g>
<!-- sqlalchemy_sql&#45;&gt;src_orm_queries -->
<g id="edge19" class="edge">
<title>sqlalchemy_sql&#45;&gt;src_orm_queries</title><style>.edge>path:hover{stroke-width:8}</style>
<path fill="none" stroke="black" d="M859.58,-462.07C869.75,-452.36 881.74,-439.51 890,-426.18 915.07,-385.7 927,-373.26 927,-325.66 927,-325.66 927,-325.66 927,-240.13 927,-176.14 856.5,-133.97 806.84,-112.2"/>
<polygon fill="blue" stroke="black" points="808.25,-109 797.68,-108.33 805.53,-115.45 808.25,-109"/>
</g>
<!-- sqlalchemy_sql_functions -->
<g id="node10" class="node">
<title>sqlalchemy_sql_functions</title><style>.edge>path:hover{stroke-width:8}</style>
<ellipse fill="#49acac" stroke="black" cx="814" cy="-324.66" rx="47.38" ry="29.52"/>
<text text-anchor="middle" x="814" y="-332.03" font-family="Helvetica,sans-Serif" font-size="10.00" fill="#000000">sqlalchemy.</text>
<text text-anchor="middle" x="814" y="-320.78" font-family="Helvetica,sans-Serif" font-size="10.00" fill="#000000">sql.</text>
<text text-anchor="middle" x="814" y="-309.53" font-family="Helvetica,sans-Serif" font-size="10.00" fill="#000000">functions</text>
</g>
<!-- sqlalchemy_sql_functions&#45;&gt;src_orm_queries -->
<g id="edge20" class="edge">
<title>sqlalchemy_sql_functions&#45;&gt;src_orm_queries</title><style>.edge>path:hover{stroke-width:8}</style>
<path fill="none" stroke="black" d="M807.26,-294.94C799.2,-260.69 785.26,-201.7 773,-151.13 771.08,-143.21 768.98,-134.66 767,-126.67"/>
<polygon fill="#49acac" stroke="black" points="770.4,-125.84 764.6,-116.98 763.61,-127.53 770.4,-125.84"/>
</g>
<!-- src_clean -->
<g id="node11" class="node">
<title>src_clean</title><style>.edge>path:hover{stroke-width:8}</style>
<ellipse fill="#4747c2" stroke="black" cx="566" cy="-169.13" rx="32.99" ry="18"/>
<text text-anchor="middle" x="566" y="-165.26" font-family="Helvetica,sans-Serif" font-size="10.00" fill="#ffffff">src.clean</text>
</g>
<!-- src_clean&#45;&gt;src_pull_data -->
<g id="edge21" class="edge">
<title>src_clean&#45;&gt;src_pull_data</title><style>.edge>path:hover{stroke-width:8}</style>
<path fill="none" stroke="black" d="M541.5,-156.8C515.79,-144.9 475.02,-126.04 445.1,-112.19"/>
<polygon fill="#4747c2" stroke="black" points="446.93,-109.18 436.38,-108.16 443.99,-115.54 446.93,-109.18"/>
</g>
<!-- src_db_config -->
<g id="node12" class="node">
<title>src_db_config</title><style>.edge>path:hover{stroke-width:8}</style>
<ellipse fill="#1616f3" stroke="black" cx="303" cy="-241.13" rx="44.08" ry="18"/>
<text text-anchor="middle" x="303" y="-237.26" font-family="Helvetica,sans-Serif" font-size="10.00" fill="#ffffff">src.db_config</text>
</g>
<!-- src_db_config&#45;&gt;src_flask_app -->
<g id="edge22" class="edge">
<title>src_db_config&#45;&gt;src_flask_app</title><style>.edge>path:hover{stroke-width:8}</style>
<path fill="none" stroke="black" d="M311.38,-223.23C318.35,-209.09 328.47,-188.37 337,-170.13"/>
<path fill="none" stroke="black" d="M337,-168.13C350.85,-138.52 318.65,-121.63 337,-94.57"/>
</g>
<!-- src_db_config&#45;&gt;src_load_data -->
<g id="edge23" class="edge">
<title>src_db_config&#45;&gt;src_load_data</title><style>.edge>path:hover{stroke-width:8}</style>
<path fill="none" stroke="black" d="M293.8,-223.19C289.51,-215.28 284.29,-205.67 279.49,-196.82"/>
<polygon fill="#1616f3" stroke="black" points="282.68,-195.37 274.84,-188.25 276.53,-198.71 282.68,-195.37"/>
</g>
<!-- src_db_config&#45;&gt;src_models -->
<g id="edge24" class="edge">
<title>src_db_config&#45;&gt;src_models</title><style>.edge>path:hover{stroke-width:8}</style>
<path fill="none" stroke="black" d="M343.51,-233.43C402,-223.68 513.43,-204.8 608,-187.13 620.93,-184.72 634.94,-181.97 647.78,-179.4"/>
<polygon fill="#1616f3" stroke="black" points="648.12,-182.9 657.23,-177.5 646.73,-176.04 648.12,-182.9"/>
</g>
<!-- src_db_config&#45;&gt;src_pull_data -->
<g id="edge25" class="edge">
<title>src_db_config&#45;&gt;src_pull_data</title><style>.edge>path:hover{stroke-width:8}</style>
<path fill="none" stroke="black" d="M337,-168.13C346.37,-148.11 363.35,-130.05 378.24,-116.84"/>
<polygon fill="#1616f3" stroke="black" points="380.2,-119.77 385.54,-110.62 375.66,-114.44 380.2,-119.77"/>
</g>
<!-- src_db_config&#45;&gt;src_query_data -->
<g id="edge26" class="edge">
<title>src_db_config&#45;&gt;src_query_data</title><style>.edge>path:hover{stroke-width:8}</style>
<path fill="none" stroke="black" d="M266.67,-230.55C238.64,-220.77 203.02,-202.34 193,-170.13"/>
</g>
<!-- src_load_data&#45;&gt;src_flask_app -->
<g id="edge27" class="edge">
<title>src_load_data&#45;&gt;src_flask_app</title><style>.edge>path:hover{stroke-width:8}</style>
<path fill="none" stroke="black" d="M337,-92.57C349.37,-74.32 366.36,-56.35 380.5,-42.73"/>
<polygon fill="#2121bf" stroke="black" points="382.89,-45.3 387.77,-35.89 378.09,-40.2 382.89,-45.3"/>
<path fill="none" stroke="black" d="M283.76,-152.43C299.53,-138.48 321.85,-116.9 337,-94.57"/>
</g>
<!-- src_load_data&#45;&gt;src_pull_data -->
<g id="edge28" class="edge">
<title>src_load_data&#45;&gt;src_pull_data</title><style>.edge>path:hover{stroke-width:8}</style>
<path fill="none" stroke="black" d="M291.38,-154.47C313.69,-142.91 345.9,-126.22 370.66,-113.39"/>
<polygon fill="#2121bf" stroke="black" points="372.15,-116.56 379.42,-108.85 368.93,-110.35 372.15,-116.56"/>
</g>
<!-- src_load_data&#45;&gt;src_query_data -->
<g id="edge29" class="edge">
<title>src_load_data&#45;&gt;src_query_data</title><style>.edge>path:hover{stroke-width:8}</style>
<path fill="none" stroke="black" d="M243.09,-153.07C227.61,-142.43 206.64,-128.01 189.39,-116.15"/>
<polygon fill="#2121bf" stroke="black" points="191.72,-113.5 181.5,-110.72 187.75,-119.27 191.72,-113.5"/>
</g>
<!-- src_models&#45;&gt;src_flask_app -->
<g id="edge30" class="edge">
<title>src_models&#45;&gt;src_flask_app</title><style>.edge>path:hover{stroke-width:8}</style>
<path fill="none" stroke="black" d="M695.34,-150.77C696.53,-134.3 695.51,-109.86 682,-94.57"/>
</g>
<!-- src_models&#45;&gt;src_orm_queries -->
<g id="edge31" class="edge">
<title>src_models&#45;&gt;src_orm_queries</title><style>.edge>path:hover{stroke-width:8}</style>
<path fill="none" stroke="black" d="M707.32,-152.17C715.06,-143.54 724.85,-132.63 733.82,-122.64"/>
<polygon fill="#2d2db4" stroke="black" points="736.33,-125.07 740.41,-115.29 731.12,-120.4 736.33,-125.07"/>
</g>
<!-- src_orm_queries&#45;&gt;src_flask_app -->
<g id="edge32" class="edge">
<title>src_orm_queries&#45;&gt;src_flask_app</title><style>.edge>path:hover{stroke-width:8}</style>
<path fill="none" stroke="black" d="M721.26,-79.34C713,-76.7 704.25,-74.09 696,-72 614.19,-51.24 517.4,-35.18 459.17,-26.41"/>
<polygon fill="#3535a1" stroke="black" points="459.96,-22.99 449.55,-24.98 458.93,-29.91 459.96,-22.99"/>
</g>
<!-- src_pull_data&#45;&gt;src_flask_app -->
<g id="edge33" class="edge">
<title>src_pull_data&#45;&gt;src_flask_app</title><style>.edge>path:hover{stroke-width:8}</style>
<path fill="none" stroke="black" d="M407,-75.13C407,-66.89 407,-56.83 407,-47.51"/>
<polygon fill="#2e2e8a" stroke="black" points="410.5,-47.82 407,-37.82 403.5,-47.82 410.5,-47.82"/>
</g>
<!-- src_query_data&#45;&gt;src_flask_app -->
<g id="edge34" class="edge">
<title>src_query_data&#45;&gt;src_flask_app</title><style>.edge>path:hover{stroke-width:8}</style>
<path fill="none" stroke="black" d="M194.74,-81.71C238.95,-68.65 313.2,-46.71 361.13,-32.55"/>
<polygon fill="#333399" stroke="black" points="362.07,-35.92 370.67,-29.73 360.09,-29.21 362.07,-35.92"/>
</g>
<!-- src_scrape&#45;&gt;src_pull_data -->
<g id="edge35" class="edge">
<title>src_scrape&#45;&gt;src_pull_data</title><style>.edge>path:hover{stroke-width:8}</style>
<path fill="none" stroke="black" d="M432.35,-151.07C428.47,-142.44 423.68,-131.74 419.3,-121.99"/>
<polygon fill="#3d3db8" stroke="black" points="422.52,-120.61 415.23,-112.92 416.13,-123.47 422.52,-120.61"/>
</g>
<!-- urllib3 -->
<g id="node20" class="node">
<title>urllib3</title><style>.edge>path:hover{stroke-width:8}</style>
<ellipse fill="#d926d9" stroke="black" cx="522" cy="-324.66" rx="27" ry="18"/>
<text text-anchor="middle" x="522" y="-320.78" font-family="Helvetica,sans-Serif" font-size="10.00" fill="#ffffff">urllib3</text>
</g>
<!-- urllib3&#45;&gt;src_flask_app -->
<g id="edge36" class="edge">
<title>urllib3&#45;&gt;src_flask_app</title><style>.edge>path:hover{stroke-width:8}</style>
<path fill="none" stroke="black" d="M513,-240.13C513.12,-191.79 571.1,-218.38 608,-187.13 618.05,-178.62 690.72,-104.44 682,-94.57"/>
<path fill="none" stroke="black" d="M682,-92.57C652.95,-59.47 531.07,-36.8 459.69,-26.08"/>
<polygon fill="#d926d9" stroke="black" points="460.59,-22.68 450.19,-24.68 459.57,-29.6 460.59,-22.68"/>
</g>
<!-- urllib3&#45;&gt;src_pull_data -->
<g id="edge37" class="edge">
<title>urllib3&#45;&gt;src_pull_data</title><style>.edge>path:hover{stroke-width:8}</style>
<path fill="none" stroke="black" d="M513,-240.13C513.91,-198.81 510.08,-184.73 486,-151.13 475.04,-135.84 458.62,-123.13 443.6,-113.66"/>
<polygon fill="#d926d9" stroke="black" points="445.67,-110.82 435.29,-108.69 442.07,-116.83 445.67,-110.82"/>
</g>
<!-- urllib3&#45;&gt;src_scrape -->
<g id="edge38" class="edge">
<title>urllib3&#45;&gt;src_scrape</title><style>.edge>path:hover{stroke-width:8}</style>
<path fill="none" stroke="black" d="M513,-240.13C513.5,-217.37 494.76,-199.7 476.14,-187.81"/>
<polygon fill="#d926d9" stroke="black" points="477.93,-184.8 467.54,-182.74 474.37,-190.83 477.93,-184.8"/>
<path fill="none" stroke="black" d="M518.78,-306.54C516,-290.08 512.51,-264.48 513,-242.13"/>
</g>
</g>
</svg>
